<?xml version="1.0" standalone="no"?>
<!DOCTYPE svg PUBLIC "-//W3C//DTD SVG 20010904//EN"
 "http://www.w3.org/TR/2001/REC-SVG-20010904/DTD/svg10.dtd">
<svg version="1.0" xmlns="http://www.w3.org/2000/svg"
 width="225.000000pt" height="225.000000pt" viewBox="0 0 225.000000 225.000000"
 preserveAspectRatio="xMidYMid meet">

<g transform="translate(0.000000,225.000000) scale(0.100000,-0.100000)"
fill="#000000" stroke="none">
<path d="M945 2200 c-251 -37 -495 -177 -668 -381 -307 -363 -335 -897 -70
-1298 301 -453 890 -614 1378 -376 383 186 614 553 615 975 1 533 -376 984
-899 1075 -87 16 -269 18 -356 5z m371 -25 c165 -29 315 -98 460 -211 286
-222 440 -584 403 -945 -58 -571 -551 -996 -1118 -966 -492 27 -889 366 -998
852 -26 117 -23 340 5 458 78 318 282 577 567 719 116 58 226 89 400 112 48 7
196 -3 281 -19z"/>
<path d="M1029 2043 c4 -51 5 -54 10 -23 7 41 41 57 41 18 0 -13 5 -30 11 -38
9 -12 10 -12 5 3 -3 10 -6 30 -6 44 0 22 -4 25 -25 21 -19 -4 -25 -1 -25 13 0
11 -3 19 -7 19 -5 0 -6 -26 -4 -57z"/>
<path d="M1130 2059 c0 -5 5 -7 10 -4 6 3 10 8 10 11 0 2 -4 4 -10 4 -5 0 -10
-5 -10 -11z"/>
<path d="M1164 2053 c0 -10 5 -21 10 -24 14 -10 -3 -29 -26 -29 -14 0 -18 5
-14 15 3 8 1 15 -5 15 -6 0 -9 -8 -7 -17 2 -12 14 -19 36 -21 33 -3 33 -3 30
34 -2 21 -8 39 -14 41 -7 2 -11 -4 -10 -14z"/>
<path d="M856 2013 c8 -25 17 -49 21 -52 3 -3 3 2 0 11 -8 23 8 32 23 13 7 -8
17 -15 23 -15 6 0 1 10 -11 23 -16 17 -18 26 -11 42 8 16 7 15 -8 -3 -20 -24
-33 -21 -33 10 0 10 -4 18 -9 18 -5 0 -3 -21 5 -47z"/>
<path d="M947 2053 c-15 -15 -6 -33 17 -33 29 0 44 -19 25 -31 -9 -6 -10 -9
-2 -9 19 0 26 20 13 35 -7 8 -21 15 -31 15 -11 0 -19 5 -19 11 0 7 10 9 25 7
13 -3 22 -1 19 3 -6 11 -38 12 -47 2z"/>
<path d="M1218 2023 c-7 -49 -2 -54 10 -12 12 49 40 50 45 2 l4 -38 1 43 c2
40 1 42 -27 42 -26 0 -29 -4 -33 -37z"/>
<path d="M1358 2033 c23 -9 12 -23 -17 -23 -17 0 -33 -5 -36 -10 -9 -15 11
-37 39 -42 21 -4 25 0 30 30 6 38 1 52 -17 51 -9 0 -9 -2 1 -6z m2 -42 c0 -6
-5 -13 -10 -16 -15 -9 -43 3 -35 15 8 13 45 13 45 1z"/>
<path d="M716 2014 c-31 -30 -9 -55 40 -47 29 5 34 3 34 -15 0 -22 -32 -38
-51 -26 -8 4 -9 3 -5 -4 10 -17 30 -15 56 6 32 26 17 52 -30 52 -22 0 -41 4
-44 9 -10 15 22 33 45 26 14 -5 19 -4 15 4 -10 16 -42 14 -60 -5z"/>
<path d="M1483 2023 c-19 -7 -15 -38 7 -58 11 -10 20 -24 20 -32 0 -21 -37
-15 -55 10 -15 20 -16 20 -13 2 4 -22 44 -46 64 -38 26 10 26 37 0 58 -14 12
-26 26 -26 32 0 22 19 24 40 3 15 -15 20 -16 20 -5 0 12 -31 37 -42 34 -2 0
-9 -3 -15 -6z"/>
<path d="M821 1990 c15 -45 24 -54 15 -15 -4 17 -12 34 -17 40 -5 5 -4 -6 2
-25z"/>
<path d="M947 1989 c7 -7 15 -10 18 -7 3 3 -2 9 -12 12 -14 6 -15 5 -6 -5z"/>
<path d="M1565 1940 c-3 -5 0 -8 7 -5 18 7 42 -10 34 -23 -4 -6 -12 -10 -19
-8 -7 1 -9 1 -5 -1 5 -3 5 -17 2 -31 -6 -26 -5 -25 15 6 26 40 26 49 2 62 -24
12 -28 13 -36 0z"/>
<path d="M596 1914 c-22 -22 -20 -31 2 -11 10 10 22 17 25 17 13 0 7 -27 -8
-40 -35 -29 1 -52 37 -24 l23 17 -25 29 c-28 32 -33 34 -54 12z m54 -39 c0
-16 -27 -32 -37 -21 -7 7 16 36 28 36 5 0 9 -7 9 -15z"/>
<path d="M1540 1905 c-12 -15 -6 -35 12 -35 7 0 7 4 -1 13 -8 10 -7 17 1 25 7
7 9 12 6 12 -3 0 -11 -7 -18 -15z"/>
<path d="M1631 1868 c-13 -16 -21 -31 -18 -34 3 -3 13 6 22 20 34 52 61 22 29
-32 l-16 -27 24 28 c42 48 65 26 32 -31 -15 -26 -15 -26 10 3 14 17 26 33 26
36 0 6 -52 48 -75 61 -5 3 -21 -8 -34 -24z"/>
<path d="M553 1880 c3 -8 7 -25 11 -37 9 -27 3 -28 -30 -7 -13 9 -27 15 -29
12 -2 -2 14 -15 36 -28 28 -18 39 -30 35 -42 -2 -10 0 -18 6 -18 13 0 2 62
-18 105 -8 16 -13 23 -11 15z"/>
<path d="M945 1860 c-269 -71 -459 -244 -548 -498 -29 -82 -31 -96 -31 -237 0
-138 2 -156 28 -230 89 -259 282 -441 534 -506 94 -24 262 -26 358 -3 264 61
471 254 556 519 13 40 21 102 25 185 5 107 2 138 -16 209 -88 351 -383 582
-741 580 -59 0 -121 -7 -165 -19z m242 -144 c96 -48 206 -70 307 -63 45 4 90
9 102 13 20 5 21 1 27 -117 12 -209 8 -458 -8 -531 -32 -151 -117 -304 -244
-439 -77 -83 -217 -189 -248 -189 -11 0 -13 130 -13 680 0 374 2 680 4 680 3
0 36 -15 73 -34z m-214 -330 c54 -23 72 -51 72 -113 0 -52 -2 -57 -42 -92
l-42 -37 36 -90 c19 -49 43 -96 54 -106 10 -9 19 -19 19 -22 0 -3 -30 -6 -66
-6 -54 0 -65 3 -61 15 7 16 -22 105 -54 173 -20 41 -22 42 -70 42 l-49 0 0
-103 c0 -67 4 -107 12 -115 9 -9 -2 -12 -51 -12 -54 0 -62 2 -52 14 9 10 11
78 9 240 l-3 226 128 0 c85 0 138 -5 160 -14z"/>
<path d="M1182 1373 c9 -10 25 -45 36 -78 11 -33 43 -123 70 -201 36 -102 47
-145 40 -157 -8 -15 -2 -17 52 -17 59 0 60 1 54 24 -7 28 117 400 143 428 15
17 13 18 -47 18 -52 0 -61 -2 -51 -14 9 -10 0 -47 -39 -161 -27 -82 -52 -151
-55 -153 -2 -3 -7 1 -10 9 -64 178 -96 278 -92 297 4 21 1 22 -56 22 -56 0
-59 -1 -45 -17z"/>
<path d="M770 1265 l0 -55 73 0 c88 0 121 15 125 55 5 44 -18 55 -115 55 l-83
0 0 -55z"/>
<path d="M460 1805 c-10 -12 -10 -21 -1 -41 16 -35 65 -31 68 6 3 25 3 25 -7
3 -5 -13 -16 -23 -25 -23 -21 0 -19 13 5 35 16 14 17 20 8 27 -19 12 -34 10
-48 -7z m40 -4 c0 -12 -29 -35 -36 -28 -11 10 5 37 21 37 8 0 15 -4 15 -9z"/>
<path d="M1739 1773 l-24 -28 28 24 c25 23 32 31 24 31 -2 0 -14 -12 -28 -27z"/>
<path d="M1782 1762 c-18 -16 -32 -34 -32 -40 0 -6 16 5 35 25 33 34 40 43 32
43 -2 0 -18 -13 -35 -28z"/>
<path d="M1815 1729 c-22 -16 -42 -35 -44 -41 -2 -6 10 0 27 12 46 34 74 6 30
-31 -11 -11 -19 -21 -16 -24 2 -3 17 8 32 24 25 26 26 29 11 45 -14 13 -15 19
-5 31 18 22 10 18 -35 -16z"/>
<path d="M390 1735 c-10 -12 -9 -20 4 -40 25 -38 77 -28 75 15 0 9 -4 6 -9 -7
-10 -25 -40 -32 -40 -9 0 7 7 19 15 26 8 7 12 16 9 21 -8 14 -40 10 -54 -6z
m40 -4 c0 -5 -6 -14 -14 -20 -16 -13 -32 2 -21 19 8 12 35 13 35 1z"/>
<path d="M347 1675 c-6 -14 35 -55 56 -55 5 0 -2 10 -17 21 -15 12 -25 28 -22
35 3 8 1 14 -3 14 -5 0 -11 -7 -14 -15z"/>
<path d="M1851 1639 c-13 -11 -22 -21 -20 -24 3 -2 18 7 34 20 17 13 26 24 20
24 -5 0 -21 -9 -34 -20z"/>
<path d="M302 1626 c7 -8 15 -12 17 -10 2 2 16 -6 32 -16 17 -13 30 -16 34
-10 3 5 -1 10 -9 10 -9 0 -25 9 -36 20 -24 24 -59 29 -38 6z"/>
<path d="M1964 1594 c4 -10 -4 -21 -25 -32 -56 -31 -65 -43 -12 -18 51 26 52
26 58 5 4 -11 9 -19 11 -16 6 5 -24 77 -32 77 -3 0 -3 -7 0 -16z"/>
<path d="M273 1561 c-3 -13 -11 -18 -21 -15 -10 3 3 -6 28 -20 53 -30 79 -35
33 -6 -39 23 -45 55 -10 47 12 -2 31 -8 42 -11 13 -5 12 -2 -5 8 -34 21 -61
20 -67 -3z"/>
<path d="M1935 1500 c-22 -10 -34 -19 -27 -19 7 -1 22 4 33 10 15 7 24 7 35
-2 15 -12 19 -2 6 18 -5 9 -18 7 -47 -7z"/>
<path d="M240 1485 c-7 -8 -10 -22 -6 -30 7 -19 35 -19 42 0 8 19 34 20 34 0
0 -7 -8 -19 -17 -24 -10 -6 -13 -11 -7 -11 15 0 34 22 34 41 0 28 -20 33 -44
10 -12 -12 -25 -21 -29 -21 -14 0 -6 29 11 39 9 6 12 11 6 11 -6 0 -17 -7 -24
-15z"/>
<path d="M1958 1448 c-28 -10 -33 -23 -22 -52 8 -20 32 -20 64 0 16 10 18 13
5 8 -62 -21 -89 10 -33 38 37 19 28 22 -14 6z"/>
<path d="M205 1389 c-4 -12 -2 -26 4 -32 9 -9 11 -5 9 12 -2 13 2 26 9 28 7 3
13 -9 15 -29 3 -33 27 -47 36 -20 2 7 -2 10 -12 6 -12 -4 -16 0 -16 16 0 15 4
20 15 17 8 -4 17 -2 20 2 5 9 -27 21 -57 21 -9 0 -20 -9 -23 -21z"/>
<path d="M2002 1358 c-7 -7 -12 -21 -12 -31 0 -13 -5 -17 -15 -13 -8 3 -15 1
-15 -3 0 -5 7 -12 16 -15 10 -4 18 3 26 24 11 33 33 42 25 10 -3 -11 -1 -20 4
-20 14 0 11 36 -4 49 -10 8 -17 7 -25 -1z"/>
<path d="M1956 1344 c-5 -14 -4 -15 9 -4 17 14 19 20 6 20 -5 0 -12 -7 -15
-16z"/>
<path d="M163 1318 c-6 -7 -13 -27 -16 -45 -6 -31 -6 -31 44 -38 28 -4 53 -4
56 -1 4 3 -4 6 -16 6 -18 0 -22 5 -19 27 2 22 10 29 33 34 29 6 29 7 -7 8 -20
0 -40 6 -43 11 -8 14 -21 13 -32 -2z m37 -38 c0 -23 -4 -30 -20 -30 -14 0 -20
7 -20 23 0 27 7 37 27 37 8 0 13 -12 13 -30z"/>
<path d="M2010 1274 c-19 -6 -36 -18 -38 -25 -3 -10 -1 -11 5 -2 5 7 26 14 47
17 42 5 54 11 34 18 -7 2 -29 -1 -48 -8z"/>
<path d="M197 963 c-4 -3 -7 -17 -7 -30 0 -18 6 -23 24 -23 13 0 27 7 30 16
11 28 -27 57 -47 37z"/>
<path d="M1991 952 c-12 -22 3 -42 30 -42 22 0 33 28 18 46 -16 19 -36 17 -48
-4z"/>
<path d="M1855 690 c-3 -6 1 -7 9 -4 18 7 21 14 7 14 -6 0 -13 -4 -16 -10z"/>
<path d="M308 653 c-32 -19 -58 -38 -58 -43 0 -5 23 4 50 20 28 17 55 30 60
30 12 0 22 18 13 23 -5 2 -34 -11 -65 -30z"/>
<path d="M1840 659 c1 -35 17 -43 58 -31 54 16 61 15 72 -10 9 -23 9 -23 9 -2
1 37 -23 49 -71 35 -37 -12 -43 -11 -55 5 -10 13 -13 14 -13 3z"/>
<path d="M414 603 c3 -6 2 -14 -3 -17 -5 -3 -7 -14 -4 -25 2 -10 0 -44 -6 -76
-6 -32 -9 -60 -8 -62 2 -2 24 15 49 37 26 22 51 40 58 40 6 0 8 5 4 11 -4 7
-21 -3 -45 -27 -21 -21 -40 -36 -42 -33 -3 2 0 35 6 72 8 53 8 70 -3 80 -9 9
-11 9 -6 0z"/>
<path d="M1788 584 c-3 -3 13 -23 36 -45 l41 -41 -77 7 c-48 3 -79 2 -83 -5
-3 -5 1 -10 9 -10 9 0 16 -6 16 -12 0 -9 3 -9 9 1 7 11 25 13 82 7 l74 -7 -50
53 c-28 29 -50 54 -51 55 0 2 -3 0 -6 -3z"/>
<path d="M1938 573 c7 -3 16 -2 19 1 4 3 -2 6 -13 5 -11 0 -14 -3 -6 -6z"/>
<path d="M355 539 c-4 -6 -16 -14 -28 -18 -11 -4 -16 -11 -10 -14 5 -4 21 5
33 18 13 14 21 25 17 25 -3 0 -9 -5 -12 -11z"/>
<path d="M1771 445 c15 -16 28 -36 31 -44 3 -10 6 -10 17 3 11 13 11 16 0 16
-7 0 -27 12 -43 28 l-31 27 26 -30z"/>
<path d="M535 440 c-3 -6 -3 -30 1 -55 6 -41 4 -46 -17 -55 -23 -9 -22 -10 6
-7 30 2 30 2 27 59 -3 47 0 57 15 61 15 4 14 5 -4 6 -12 0 -25 -4 -28 -9z"/>
<path d="M596 427 c3 -10 9 -15 12 -12 3 3 0 11 -7 18 -10 9 -11 8 -5 -6z"/>
<path d="M1620 425 c0 -3 11 -10 25 -15 16 -6 33 -26 45 -52 14 -31 20 -37 20
-21 0 34 -20 70 -47 82 -26 12 -43 14 -43 6z"/>
<path d="M668 373 c7 -3 16 -2 19 1 4 3 -2 6 -13 5 -11 0 -14 -3 -6 -6z"/>
<path d="M471 354 c0 -11 3 -14 6 -6 3 7 2 16 -1 19 -3 4 -6 -2 -5 -13z"/>
<path d="M675 307 c-16 -34 -31 -65 -32 -68 -2 -4 3 -9 12 -13 9 -3 13 -2 10
4 -4 6 8 35 26 66 17 31 28 59 23 64 -5 4 -22 -20 -39 -53z"/>
<path d="M1560 352 c0 -28 51 -82 77 -82 17 1 17 2 -2 16 -11 8 -25 18 -31 22
-6 4 -18 21 -27 37 -15 28 -16 28 -17 7z"/>
<path d="M1451 331 c-7 -5 -9 -10 -4 -12 5 -2 21 -30 36 -61 14 -32 31 -58 37
-58 5 0 -3 26 -18 58 -16 31 -31 62 -33 69 -3 8 -9 9 -18 4z"/>
<path d="M815 252 c-9 -32 -22 -63 -27 -69 -8 -9 -6 -13 4 -13 9 0 20 18 27
43 7 23 19 52 26 64 12 17 12 22 1 26 -9 4 -19 -13 -31 -51z"/>
<path d="M1350 296 c0 -2 9 -6 20 -9 11 -3 18 -1 14 4 -5 9 -34 13 -34 5z"/>
<path d="M1320 284 c0 -3 7 -33 15 -65 9 -33 13 -64 10 -68 -3 -5 4 -7 15 -4
14 4 17 9 11 17 -5 6 -15 37 -22 69 -8 31 -17 57 -21 57 -5 0 -8 -3 -8 -6z"/>
<path d="M964 272 c2 -4 -1 -38 -8 -75 -10 -50 -10 -67 -1 -67 6 0 12 17 13
39 2 21 7 52 11 69 7 23 6 32 -5 36 -8 3 -13 2 -10 -2z"/>
<path d="M1275 269 c-4 -6 -5 -12 -2 -15 2 -3 7 2 10 11 7 17 1 20 -8 4z"/>
<path d="M1015 260 c3 -5 8 -10 11 -10 2 0 4 5 4 10 0 6 -5 10 -11 10 -5 0 -7
-4 -4 -10z"/>
<path d="M1196 255 c4 -8 10 -12 15 -9 14 8 10 24 -6 24 -9 0 -12 -6 -9 -15z"/>
<path d="M1100 216 c0 -56 15 -96 35 -96 15 0 15 1 1 16 -11 10 -16 34 -16 70
0 30 -4 54 -10 54 -5 0 -10 -20 -10 -44z"/>
<path d="M1191 137 c-13 -21 -12 -21 5 -5 10 10 16 20 13 22 -3 3 -11 -5 -18
-17z"/>
</g>
</svg>
